<svg width="92" height="92" viewBox="0 0 92 92" fill="none" xmlns="http://www.w3.org/2000/svg">
<path d="M88.4615 0H3.53846C2.6 0 1.69998 0.484642 1.03639 1.34731C0.372801 2.20998 0 3.38 0 4.6V82.8C0 85.24 0.745602 87.58 2.07278 89.3054C3.39996 91.0307 5.20001 92 7.07692 92H84.9231C86.8 92 88.6 91.0307 89.9272 89.3054C91.2544 87.58 92 85.24 92 82.8V4.6C92 3.38 91.6272 2.20998 90.9636 1.34731C90.3 0.484642 89.4 0 88.4615 0ZM46 48.9612L12.6367 9.2H79.3633L46 48.9612ZM33.0448 46L7.07692 76.9408V15.0593L33.0448 46ZM38.2817 52.2388L43.5894 58.5925C44.2422 59.3715 45.0961 59.8038 45.9823 59.8038C46.8685 59.8038 47.7224 59.3715 48.3752 58.5925L53.6829 52.2388L79.3367 82.8H12.6367L38.2817 52.2388ZM58.9552 46L84.9231 15.0535V76.9465L58.9552 46Z" fill="#E7D6A9"/>
</svg>
