<svg width="59" height="68" viewBox="0 0 59 68" fill="none" xmlns="http://www.w3.org/2000/svg">
<path d="M35.773 57.12C34.9854 62.0262 29.2574 68 29.2574 68C29.2574 68 23.6581 62.2603 22.7418 57.5086C21.7108 52.1617 25.6416 44.2971 25.6416 44.2971C26.8683 44.2971 27.8436 45.3842 27.9284 46.6249C28.1621 50.0441 29.2574 54.1504 29.2574 54.4C29.2574 54.6542 30.2829 50.3339 30.4468 46.6259C30.5019 45.3789 31.4756 44.2971 32.7068 44.2971C32.7068 44.2971 36.5894 52.0342 35.773 57.12Z" fill="#FFFAF6"/>
<path d="M12.5606 51.3879C8.02244 53.2694 0.0059886 51.4371 0.0059886 51.4371C0.0059886 51.4371 1.90952 43.5983 5.42784 40.3245C9.38687 36.6405 18.055 35.9315 18.055 35.9315C18.6957 36.9921 18.2908 38.4031 17.2914 39.1244C14.5374 41.1122 11.6554 44.2038 11.4455 44.3341C11.2317 44.4669 15.4013 43.0971 18.6058 41.3022C19.6835 40.6985 21.102 40.9754 21.745 42.0399C21.745 42.0399 17.2648 49.4376 12.5606 51.3879Z" fill="#FFFAF6"/>
<path d="M46.4454 51.5298C50.9835 53.4113 59 51.579 59 51.579C59 51.579 57.0965 43.7402 53.5781 40.4664C49.6191 36.7825 40.951 36.0734 40.951 36.0734C40.3103 37.134 40.7152 38.545 41.7146 39.2663C44.4686 41.2541 47.3505 44.3457 47.5605 44.4761C47.7743 44.6088 43.6047 43.239 40.4002 41.4441C39.3224 40.8405 37.904 41.1174 37.261 42.1819C37.261 42.1819 41.7412 49.5795 46.4454 51.5298Z" fill="#FFFAF6"/>
<path d="M46.4454 15.8827C50.9835 14.0013 59 15.8336 59 15.8336C59 15.8336 57.0965 23.6724 53.5781 26.9462C49.6191 30.6301 40.951 31.3392 40.951 31.3392C40.3103 30.2786 40.7152 28.8676 41.7146 28.1463C44.4686 26.1585 47.3505 23.0669 47.5605 22.9365C47.7743 22.8038 43.6047 24.1736 40.4002 25.9685C39.3224 26.5721 37.904 26.2952 37.261 25.2307C37.261 25.2307 41.7412 17.8331 46.4454 15.8827Z" fill="#FFFAF6"/>
<path d="M12.5546 15.8827C8.01645 14.0013 0 15.8336 0 15.8336C0 15.8336 1.90353 23.6724 5.42185 26.9462C9.38088 30.6301 18.049 31.3392 18.049 31.3392C18.6897 30.2786 18.2848 28.8676 17.2854 28.1463C14.5314 26.1585 11.6495 23.0669 11.4395 22.9365C11.2257 22.8038 15.3953 24.1736 18.5998 25.9685C19.6776 26.5721 21.096 26.2952 21.739 25.2307C21.739 25.2307 17.2588 17.8331 12.5546 15.8827Z" fill="#FFFAF6"/>
<path d="M35.773 10.88C34.9854 5.97384 29.2574 0 29.2574 0C29.2574 0 23.6581 5.73973 22.7418 10.4914C21.7108 15.8383 25.6416 23.7029 25.6416 23.7029C26.8683 23.7029 27.8436 22.6158 27.9284 21.3751C28.1621 17.9559 29.2574 13.8496 29.2574 13.6C29.2574 13.3458 30.2829 17.6661 30.4468 21.3741C30.5019 22.6211 31.4756 23.7029 32.7068 23.7029C32.7068 23.7029 36.5894 15.9658 35.773 10.88Z" fill="#FFFAF6"/>
<path d="M37.1337 33.4171C37.1337 37.7092 33.7018 41.1886 29.4683 41.1886C25.2348 41.1886 21.8029 37.7092 21.8029 33.4171C21.8029 29.1251 25.2348 25.6457 29.4683 25.6457C33.7018 25.6457 37.1337 29.1251 37.1337 33.4171Z" fill="#E7D6A9"/>
</svg>
