<svg width="93" height="103" viewBox="0 0 93 103" fill="none" xmlns="http://www.w3.org/2000/svg">
<path d="M46.3364 27.6322C42.1066 27.6322 37.9719 29.0213 34.4549 31.6238C30.938 34.2264 28.1969 37.9254 26.5783 42.2532C24.9596 46.5811 24.5361 51.3433 25.3613 55.9377C26.1865 60.5321 28.2233 64.7523 31.2142 68.0647C34.2051 71.3771 38.0157 73.6328 42.1642 74.5467C46.3127 75.4606 50.6127 74.9915 54.5205 73.1989C58.4282 71.4062 61.7683 68.3705 64.1182 64.4756C66.4681 60.5806 67.7224 56.0014 67.7224 51.317C67.7165 45.0374 65.4615 39.0169 61.4521 34.5766C57.4427 30.1362 52.0065 27.6388 46.3364 27.6322ZM46.3364 67.1069C43.5165 67.1069 40.76 66.1808 38.4154 64.4458C36.0708 62.7108 34.2434 60.2447 33.1643 57.3595C32.0852 54.4743 31.8029 51.2995 32.353 48.2366C32.9031 45.1736 34.261 42.3601 36.2549 40.1519C38.2488 37.9436 40.7893 36.4398 43.5549 35.8306C46.3206 35.2213 49.1872 35.534 51.7924 36.7291C54.3976 37.9242 56.6243 39.948 58.1909 42.5446C59.7576 45.1413 60.5937 48.1941 60.5937 51.317C60.5937 55.5047 59.0916 59.5209 56.4178 62.4821C53.7441 65.4433 50.1177 67.1069 46.3364 67.1069ZM67.7224 0H24.9504C18.3353 0.00783683 11.9932 2.9216 7.31561 8.10195C2.63804 13.2823 0.00707621 20.3061 0 27.6322V75.0018C0.00707621 82.3279 2.63804 89.3517 7.31561 94.5321C11.9932 99.7124 18.3353 102.626 24.9504 102.634H67.7224C74.3375 102.626 80.6796 99.7124 85.3572 94.5321C90.0347 89.3517 92.6657 82.3279 92.6728 75.0018V27.6322C92.6657 20.3061 90.0347 13.2823 85.3572 8.10195C80.6796 2.9216 74.3375 0.00783683 67.7224 0ZM85.5441 75.0018C85.5441 80.2365 83.6665 85.2567 80.3242 88.9582C76.982 92.6596 72.449 94.7391 67.7224 94.7391H24.9504C20.2238 94.7391 15.6907 92.6596 12.3485 88.9582C9.00631 85.2567 7.12867 80.2365 7.12867 75.0018V27.6322C7.12867 22.3976 9.00631 17.3773 12.3485 13.6758C15.6907 9.97439 20.2238 7.89493 24.9504 7.89493H67.7224C72.449 7.89493 76.982 9.97439 80.3242 13.6758C83.6665 17.3773 85.5441 22.3976 85.5441 27.6322V75.0018ZM74.8511 25.6585C74.8511 26.8296 74.5375 27.9744 73.95 28.9481C73.3625 29.9219 72.5275 30.6808 71.5506 31.129C70.5736 31.5771 69.4986 31.6944 68.4615 31.4659C67.4244 31.2375 66.4717 30.6735 65.724 29.8454C64.9763 29.0173 64.4671 27.9623 64.2608 26.8137C64.0545 25.6651 64.1604 24.4745 64.565 23.3926C64.9697 22.3106 65.655 21.3858 66.5342 20.7352C67.4134 20.0846 68.4471 19.7373 69.5046 19.7373C70.9226 19.7373 72.2825 20.3612 73.2851 21.4716C74.2878 22.582 74.8511 24.0881 74.8511 25.6585Z" fill="#E7D6A9"/>
</svg>
