<svg width="93" height="103" viewBox="0 0 93 103" fill="none" xmlns="http://www.w3.org/2000/svg">
<path d="M85.5441 0H7.12867C5.23803 0 3.42483 0.831784 2.08794 2.31237C0.751054 3.79296 0 5.80106 0 7.89493V94.7391C0 96.833 0.751054 98.8411 2.08794 100.322C3.42483 101.802 5.23803 102.634 7.12867 102.634H85.5441C87.4347 102.634 89.2479 101.802 90.5848 100.322C91.9217 98.8411 92.6728 96.833 92.6728 94.7391V7.89493C92.6728 5.80106 91.9217 3.79296 90.5848 2.31237C89.2479 0.831784 87.4347 0 85.5441 0ZM85.5441 94.7391H7.12867V7.89493H85.5441V94.7391ZM32.079 43.4221V75.0018C32.079 76.0487 31.7035 77.0528 31.0351 77.7931C30.3666 78.5334 29.46 78.9492 28.5147 78.9492C27.5694 78.9492 26.6628 78.5334 25.9943 77.7931C25.3259 77.0528 24.9504 76.0487 24.9504 75.0018V43.4221C24.9504 42.3752 25.3259 41.3711 25.9943 40.6308C26.6628 39.8905 27.5694 39.4746 28.5147 39.4746C29.46 39.4746 30.3666 39.8905 31.0351 40.6308C31.7035 41.3711 32.079 42.3752 32.079 43.4221ZM71.2867 57.2382V75.0018C71.2867 76.0487 70.9112 77.0528 70.2428 77.7931C69.5743 78.5334 68.6677 78.9492 67.7224 78.9492C66.7771 78.9492 65.8705 78.5334 65.202 77.7931C64.5336 77.0528 64.1581 76.0487 64.1581 75.0018V57.2382C64.1581 54.6209 63.2193 52.1107 61.5481 50.26C59.877 48.4093 57.6105 47.3696 55.2472 47.3696C52.8839 47.3696 50.6174 48.4093 48.9463 50.26C47.2752 52.1107 46.3364 54.6209 46.3364 57.2382V75.0018C46.3364 76.0487 45.9609 77.0528 45.2924 77.7931C44.624 78.5334 43.7174 78.9492 42.772 78.9492C41.8267 78.9492 40.9201 78.5334 40.2517 77.7931C39.5832 77.0528 39.2077 76.0487 39.2077 75.0018V43.4221C39.2121 42.4552 39.5368 41.5237 40.1202 40.8043C40.7036 40.085 41.5051 39.6278 42.3727 39.5195C43.2403 39.4112 44.1136 39.6593 44.827 40.2167C45.5403 40.7742 46.0441 41.6022 46.2428 42.5438C48.654 40.7323 51.4653 39.6823 54.3746 39.5068C57.284 39.3312 60.1816 40.0367 62.7562 41.5473C65.3309 43.058 67.4853 45.3168 68.9883 48.0813C70.4912 50.8457 71.2858 54.0114 71.2867 57.2382ZM33.8612 29.606C33.8612 30.7771 33.5476 31.9219 32.9602 32.8956C32.3727 33.8693 31.5377 34.6283 30.5607 35.0764C29.5838 35.5246 28.5088 35.6419 27.4716 35.4134C26.4345 35.1849 25.4819 34.621 24.7341 33.7929C23.9864 32.9648 23.4772 31.9097 23.2709 30.7611C23.0646 29.6125 23.1705 28.422 23.5752 27.34C23.9798 26.2581 24.6651 25.3333 25.5443 24.6827C26.4236 24.032 27.4573 23.6848 28.5147 23.6848C29.9327 23.6848 31.2926 24.3086 32.2952 25.4191C33.2979 26.5295 33.8612 28.0356 33.8612 29.606Z" fill="#E7D6A9"/>
</svg>
