<svg width="216" height="211" viewBox="0 0 216 211" fill="none" xmlns="http://www.w3.org/2000/svg">
<path d="M150.965 59.3041C150.546 61.8638 147.5 64.9805 147.5 64.9805C147.5 64.9805 144.523 61.9859 144.036 59.5068C143.488 56.7171 145.578 52.614 145.578 52.614C146.23 52.614 146.749 53.1811 146.794 53.8284C146.918 55.6123 147.5 57.7547 147.5 57.885C147.5 58.0176 148.046 55.7635 148.133 53.8289C148.162 53.1783 148.68 52.614 149.334 52.614C149.334 52.614 151.399 56.6507 150.965 59.3041Z" fill="#D9D9D9"/>
<path d="M156.639 56.3875C159.052 57.3691 163.315 56.4131 163.315 56.4131C163.315 56.4131 162.303 52.3234 160.432 50.6153C158.327 48.6933 153.718 48.3234 153.718 48.3234C153.377 48.8767 153.593 49.6129 154.124 49.9892C155.588 51.0263 157.121 52.6393 157.232 52.7073C157.346 52.7766 155.129 52.0619 153.425 51.1254C152.852 50.8105 152.098 50.955 151.756 51.5103C151.756 51.5103 154.138 55.3699 156.639 56.3875Z" fill="#D9D9D9"/>
<path d="M138.619 37.7892C136.206 36.8076 131.944 37.7636 131.944 37.7636C131.944 37.7636 132.956 41.8533 134.826 43.5614C136.932 45.4834 141.541 45.8533 141.541 45.8533C141.881 45.3 141.666 44.5638 141.135 44.1875C139.67 43.1504 138.138 41.5374 138.026 41.4694C137.912 41.4001 140.13 42.1148 141.833 43.0513C142.406 43.3662 143.161 43.2218 143.503 42.6664C143.503 42.6664 141.12 38.8068 138.619 37.7892Z" fill="#D9D9D9"/>
<path d="M150.965 35.1791C150.546 32.6194 147.5 29.5027 147.5 29.5027C147.5 29.5027 144.523 32.4973 144.036 34.9764C143.488 37.766 145.578 41.8692 145.578 41.8692C146.23 41.8692 146.749 41.3021 146.794 40.6548C146.918 38.8708 147.5 36.7284 147.5 36.5982C147.5 36.4656 148.046 38.7197 148.133 40.6542C148.162 41.3049 148.68 41.8692 149.334 41.8692C149.334 41.8692 151.399 37.8325 150.965 35.1791Z" fill="#D9D9D9"/>
<path d="M55.7116 100.83C59.4392 63.9329 59.6238 56.5947 54.1061 56.0158C46.78 55.2316 25.9274 60.0491 25.9274 77.1905C25.9274 85.2384 31.1313 87.4604 32.866 83.6139C35.2465 78.4789 39.3432 76.9291 43.3846 76.9291C50.4523 76.9291 53.9769 81.6719 53.9769 87.5164C53.9769 94.4066 49.0313 98.888 41.3362 98.888C28.7508 98.888 18.4537 83.95 18.4537 75.3046C18.4537 58.0325 40.229 53.0282 66.2302 54.1299C100.443 55.6237 102.621 53.1589 106.662 47.8933C107.179 47.2397 108.563 44.7749 108.046 45.0924C106.754 46.5862 102.602 49.8912 99.5205 49.331C95.0732 48.5094 91.77 45.0364 91.77 40.4803C91.77 34.2436 97.4906 31.3867 102.178 31.7788C106.865 32.0963 112.087 35.364 112.087 41.5259C112.087 51.273 97.2323 59.0407 93.5231 60.7586C90.4229 62.1964 86.6399 62.962 82.6723 100.961C82.6657 101.024 82.6592 101.087 82.6526 101.15C80.0213 126.34 77.611 149.416 82.986 149.416V149.677H44.2149V149.416C50.6368 149.416 53.3864 123.76 55.7116 100.83Z" fill="#64755E"/>
<path d="M139.51 130.575L158.055 188.703C158.24 189.282 158.701 189.282 158.886 188.703L183.152 121.351C183.355 120.828 183.411 121.09 183.411 121.351C183.052 129.301 181.935 140.131 180.848 150.656L180.587 153.188C178.133 176.958 175.513 201.774 162.669 201.774V202.035H206.57V201.774C202.41 201.774 204.916 178.06 207.38 154.737L207.53 153.319L207.758 151.129C209.918 130.392 211.9 111.361 216 111.361V111.1H185.57L172.671 146.559C172.468 146.82 172.339 146.82 172.283 146.559L165.603 124.675C159.698 105.33 146.983 97.0394 123.233 97.0394C108.655 97.0394 94.2797 115.787 94.2797 129.1C94.2797 142.414 104.54 155.989 115.907 155.989C124.119 155.989 130.67 149.491 130.541 141.704C130.412 133.208 124.378 128.073 117.384 128.073C111.165 128.073 103.968 131.901 103.968 140.472C103.968 141.125 103.322 140.92 102.879 140.472C100.628 137.988 99.9819 133.246 99.9819 130.071C99.9819 116.683 109.024 108.896 120.262 108.896C128.88 108.896 139.786 114.293 136.576 149.304C132.922 189.823 120.281 205.807 101.661 205.807C88.6328 205.807 78.1696 193.408 78.1696 182.877C78.1696 178.657 79.3876 177.537 79.7751 179.105C81.196 184.502 85.5511 186.574 89.7954 186.574C94.944 186.574 100.388 183.269 101.034 176.771C101.661 170.665 97.3615 163.644 89.2788 163.644C80.5502 163.644 71.3787 171.58 71.3787 180.226H71.3972C71.3972 193.353 85.7541 207.096 101.809 207.096C102.513 207.096 103.209 207.073 103.896 207.028C105.636 206.915 107.323 206.656 108.953 206.249C112.127 205.007 114.974 203.994 118.103 201.664C119.434 200.673 120.825 199.722 122.039 198.439C130.436 189.558 135.977 173.58 137.83 149.285L139.251 130.575C139.251 130.314 139.454 130.314 139.51 130.575Z" fill="#64755E"/>
<path fill-rule="evenodd" clip-rule="evenodd" d="M124.562 14.9381C111.98 3.74903 100.582 0.933628 83.9641 0.933628C38.2781 0.933628 0.922683 47.5507 0.922683 105.5C0.922683 163.449 38.2781 210.066 83.9641 210.066C90.8292 210.066 97.5061 209.014 103.896 207.028C105.636 206.915 107.323 206.656 108.953 206.249C101.059 209.337 92.6663 211 83.9641 211C37.592 211 0 163.766 0 105.5C0 47.234 37.592 0 83.9641 0C98.6897 0 113.07 2.11767 125.485 14.0044C130.277 18.5922 133.055 22.7127 135.698 27.6188C137.598 31.1463 139.426 34.5395 142.218 37.423C139.501 34.5468 137.48 31.7434 137.48 31.7434C137.48 31.7434 130.734 20.4267 124.562 14.9381Z" fill="#64755E"/>
<path d="M135.814 49.8377C138.108 48.5251 141.544 48.2493 141.544 48.2493C141.601 48.3424 141.643 48.4406 141.67 48.5414C141.784 48.9679 141.637 49.4407 141.316 49.7645C141.261 49.8193 141.202 49.8698 141.138 49.9151C140.032 50.6985 138.887 51.8105 138.345 52.337C138.169 52.5075 138.057 52.6166 138.029 52.6333C137.916 52.7025 140.133 51.9878 141.837 51.0514C142.41 50.7364 143.164 50.8809 143.506 51.4363C143.506 51.4363 141.124 55.2959 138.622 56.3134C136.209 57.2951 131.947 56.3391 131.947 56.3391C131.947 56.3391 132.89 52.5279 134.638 50.7271C134.701 50.6625 134.765 50.6005 134.83 50.5413C135.117 50.2788 135.451 50.0453 135.814 49.8377Z" fill="#D9D9D9"/>
<path d="M143.615 47.7332C143.564 47.4759 143.537 47.2098 143.537 46.9375C143.537 44.6982 145.361 42.8829 147.612 42.8829C148.626 42.8829 149.554 43.2512 150.267 43.8607C150.376 43.9542 150.481 44.0533 150.579 44.1576C151.267 44.8835 151.688 45.8615 151.688 46.9375C151.688 49.1768 149.863 50.9921 147.612 50.9921C145.984 50.9921 144.578 50.0418 143.925 48.6682C143.786 48.3742 143.681 48.0608 143.615 47.7332Z" fill="#E7D6A9"/>
<path d="M163.315 37.7636C163.315 37.7636 159.052 36.8076 156.639 37.7892C154.138 38.8068 151.756 42.6664 151.756 42.6664C151.77 42.6899 151.786 42.7127 151.801 42.7347C151.845 42.7953 151.894 42.8502 151.947 42.8995C152.333 43.256 152.943 43.3162 153.425 43.0513C155.129 42.1148 157.346 41.4001 157.232 41.4694C157.205 41.486 157.093 41.5952 156.917 41.7657C156.375 42.2922 155.23 43.4041 154.124 44.1875C153.593 44.5638 153.377 45.3 153.718 45.8533C153.718 45.8533 158.327 45.4834 160.432 43.5614C162.303 41.8533 163.315 37.7636 163.315 37.7636Z" fill="#D9D9D9"/>
</svg>
