<svg width="22" height="29" viewBox="0 0 22 29" fill="none" xmlns="http://www.w3.org/2000/svg">
<path d="M11 6.21435C10.0111 6.21435 9.04439 6.51807 8.22215 7.0871C7.3999 7.65614 6.75904 8.46493 6.3806 9.4112C6.00216 10.3575 5.90315 11.3987 6.09607 12.4033C6.289 13.4078 6.7652 14.3306 7.46447 15.0548C8.16373 15.7791 9.05464 16.2723 10.0245 16.4721C10.9945 16.6719 11.9998 16.5694 12.9134 16.1774C13.827 15.7854 14.6079 15.1217 15.1573 14.2701C15.7068 13.4184 16 12.4172 16 11.393C16 10.0195 15.4732 8.70231 14.5355 7.73113C13.5979 6.75995 12.3261 6.21435 11 6.21435ZM11 14.5001C10.4067 14.5001 9.82664 14.3179 9.33329 13.9765C8.83994 13.6351 8.45542 13.1498 8.22836 12.582C8.0013 12.0143 7.94189 11.3895 8.05764 10.7868C8.1734 10.1841 8.45912 9.63041 8.87868 9.19587C9.29824 8.76132 9.83279 8.46539 10.4147 8.3455C10.9967 8.22561 11.5999 8.28714 12.1481 8.52232C12.6962 8.75749 13.1648 9.15575 13.4944 9.66672C13.8241 10.1777 14 10.7784 14 11.393C14 12.217 13.6839 13.0074 13.1213 13.5901C12.5587 14.1728 11.7956 14.5001 11 14.5001ZM11 0C8.08363 0.00342661 5.28766 1.20485 3.22548 3.34071C1.1633 5.47656 0.00330842 8.37242 0 11.393C0 15.4582 1.81375 19.7668 5.25 23.854C6.79403 25.7009 8.53182 27.364 10.4312 28.8126C10.5994 28.9346 10.7997 29 11.005 29C11.2103 29 11.4106 28.9346 11.5788 28.8126C13.4747 27.3634 15.2091 25.7004 16.75 23.854C20.1813 19.7668 22 15.4582 22 11.393C21.9967 8.37242 20.8367 5.47656 18.7745 3.34071C16.7123 1.20485 13.9164 0.00342661 11 0ZM11 26.6699C8.93375 24.9869 2 18.8049 2 11.393C2 8.92075 2.94821 6.54978 4.63604 4.80166C6.32387 3.05354 8.61305 2.07145 11 2.07145C13.3869 2.07145 15.6761 3.05354 17.364 4.80166C19.0518 6.54978 20 8.92075 20 11.393C20 18.8023 13.0663 24.9869 11 26.6699Z" fill="#9CAA97"/>
</svg>
