<svg width="537" height="78" viewBox="0 0 537 78" fill="none" xmlns="http://www.w3.org/2000/svg">
<path d="M20.9 38.2902C22.99 17.8402 23.1 13.7702 20 13.4502C15.9 13.0202 4.19 15.6802 4.19 25.1902C4.19 29.6502 7.10999 30.8802 8.07999 28.7502C9.40999 25.9102 11.72 25.0402 13.98 25.0402C17.94 25.0402 19.92 27.6702 19.92 30.9102C19.92 34.7302 17.15 37.2102 12.83 37.2102C5.76999 37.2102 0 28.9302 0 24.1402C0 14.5602 12.22 11.7902 26.8 12.4002C45.99 13.2302 47.21 11.8602 49.48 8.94019C49.77 8.58019 50.54 7.2102 50.26 7.3902C49.54 8.2202 47.21 10.0502 45.48 9.74018C42.99 9.28018 41.13 7.36016 41.13 4.84016C41.13 1.38016 44.33 -0.199852 46.96 0.0201484C49.59 0.200148 52.52 2.00017 52.52 5.42017C52.52 10.8202 44.19 15.1302 42.11 16.0802C40.37 16.8702 38.25 17.3002 36.02 38.3602C34.54 52.3702 33.18 65.2202 36.2 65.2202V65.3602H14.45V65.2202C18.05 65.2202 19.6 51.0002 20.89 38.2902H20.9Z" fill="#64755E"/>
<path d="M59.6 54.2003C59.6 53.9803 59.49 53.8403 59.38 54.2003C57.11 61.5403 53.4001 66.1502 48.18 66.1502C42.1701 66.1502 37.92 60.0302 38.82 48.8702C39.97 34.6502 48.58 23.9602 63.48 23.9602C67.66 23.9602 72.77 24.7902 76.01 25.3602C76.48 25.4302 76.6901 25.6802 76.6601 26.1502C76.0501 33.9602 75.9801 34.7503 75.6501 38.1403C74.2101 53.1903 73.31 59.8903 75.11 59.8903C76.12 59.8903 76.41 57.6203 77.7401 45.7003C77.7801 45.4803 77.92 45.3402 78.1 45.3402C78.32 45.3402 78.5001 45.5203 78.4601 45.7003C76.91 60.5303 76.23 66.3702 67.8 66.3702C61.97 66.3702 59.59 63.6003 59.59 54.2003H59.6ZM55.68 59.5302C56.87 59.5302 59.4201 55.6102 60.9401 41.3802L62.09 30.9402C62.34 28.4902 62.49 26.9802 62.63 25.6502C62.67 25.1502 62.49 24.8902 61.95 24.9302C58.85 25.0702 56.37 34.0402 55.29 42.9702C55.18 43.8002 53.2701 59.5302 55.6901 59.5302H55.68Z" fill="#64755E"/>
<path d="M71.0501 71.7703C71.8101 68.5303 74.4701 66.2303 78.0701 66.2303C82.2801 66.2303 82.2501 68.6103 82.1001 71.5903C82.0601 73.6403 82.7501 74.3604 83.5801 74.3604C85.2401 74.3604 85.5201 72.4903 85.9201 69.3604C86.1401 67.7003 85.9901 62.3404 85.1301 54.0604C84.5501 48.5204 83.8001 41.7104 83.0801 33.8604C82.5001 27.4204 82.0701 26.1604 78.0401 25.1804L78.0801 25.0403H94.3201C95.6901 25.0403 97.5601 25.5804 97.7001 27.8104C97.8101 29.1404 97.4801 32.8103 97.4101 42.1003L97.3001 58.4803C97.3001 59.3803 98.0601 59.0603 98.5201 58.4803C102.8 53.1503 106.58 47.7504 107.34 41.7404C108.2 34.6104 99.9601 35.4803 100.64 29.9703C101.14 25.8303 104.24 24.1404 107.84 24.1404C112.3 24.1404 113.53 27.1304 112.95 31.8804C112.19 38.1104 108.09 47.5804 102.11 55.3904C96.5701 62.6604 88.2501 77.4603 76.7601 77.4603C71.9401 77.4603 70.3201 74.9403 71.0401 71.7703H71.0501Z" fill="#64755E"/>
<path d="M115.65 43.3703C117.41 25.8003 118.93 13.6703 115.22 13.6703L115.26 13.5303H131.43C132.94 13.5303 133.55 14.3903 133.34 15.8703C132.62 20.9103 131.58 29.7303 130.14 43.2703C128.88 54.9703 128.41 59.9003 129.71 59.9003C130.79 59.9003 131.22 58.0303 132.63 45.7103C132.67 45.4903 132.81 45.3503 132.99 45.3503C133.21 45.3503 133.39 45.5303 133.35 45.7103C131.77 60.4703 131.12 66.3803 122.73 66.3803C112.15 66.3803 114.45 55.7203 115.67 43.3703H115.65Z" fill="#64755E"/>
<path d="M135.27 45.4203C136.96 33.6103 145.89 24.0303 157.23 24.0303C168.57 24.0303 172.86 34.3303 171.63 43.9803C170.12 56.0003 160.86 66.3703 149.16 66.3703C136.59 66.3703 133.97 54.3803 135.26 45.4203H135.27ZM151.15 65.6503C153.17 65.6503 154.32 60.5403 156.15 43.6203C157.77 28.4603 157.7 24.7503 155.68 24.7503C153.56 24.7503 152.55 28.8203 150.75 45.7803C149.2 60.6503 149.13 65.6503 151.15 65.6503Z" fill="#64755E"/>
<path d="M175.05 44.4103C176.09 34.4703 176.99 25.1804 173.83 25.1804L173.87 25.0403H190.47C188.85 28.1703 188.74 33.9003 188.74 34.5403C188.7 34.8303 189.17 34.8303 189.24 34.5403C189.85 31.5903 190.9 24.1003 198.24 24.1003C202.52 24.1003 204.25 27.2703 203.82 31.3403C203.17 37.5303 199.68 38.4304 196.94 38.4304C191.07 38.4304 192.55 31.9904 191.04 31.9904C190.14 31.9904 190.46 35.5203 189.38 45.7803C188.01 58.8903 187.9 65.2203 193.95 65.2203V65.3604H169.61V65.2203C172.71 65.2203 173.71 57.1603 175.05 44.4103Z" fill="#64755E"/>
<path d="M220.81 52.4303C220.81 47.6403 225.95 43.2403 230.85 43.2403C235.39 43.2403 237.8 47.1303 237.44 50.5103C237.08 54.1103 234.02 55.9503 231.14 55.9503C228.76 55.9503 226.32 54.8003 225.52 51.8103C225.3 50.9503 224.62 51.5603 224.62 53.9003C224.62 59.7303 230.49 66.6103 237.8 66.6103C248.24 66.6103 255.33 57.7503 257.39 35.2903C259.19 15.8803 253.07 12.9003 248.24 12.9003C241.94 12.9003 236.86 17.2203 236.86 24.6403C236.86 26.4003 237.22 29.0303 238.48 30.4003C238.73 30.6503 239.09 30.7603 239.09 30.4003C239.09 25.6503 243.12 23.5203 246.61 23.5203C250.53 23.5203 253.92 26.3603 253.99 31.0803C254.06 35.4003 250.39 39.0003 245.78 39.0003C239.41 39.0003 233.65 31.4703 233.65 24.0903C233.65 16.7103 241.71 6.32031 249.89 6.32031C263.21 6.32031 270.34 10.9103 273.65 21.6403L277.39 33.7703C277.43 33.9103 277.5 33.9103 277.61 33.7703L284.85 14.1103H301.92V14.2503C299.54 14.2503 298.43 25.5503 297.17 37.5103C295.77 50.6903 294.25 64.3703 296.63 64.3703V64.5103H272V64.3703C279.2 64.3703 280.68 50.6203 282.04 37.4403C282.69 31.1803 283.41 24.5503 283.62 19.8003C283.62 19.6603 283.58 19.5103 283.48 19.8003L269.87 57.1303C269.76 57.4503 269.51 57.4503 269.4 57.1303L259 24.9103C258.96 24.7703 258.86 24.7703 258.86 24.9103L258.07 35.2803C256.34 57.6703 248.89 67.3203 237.87 67.3203C228.87 67.3203 220.81 59.7003 220.81 52.4303Z" fill="#64755E"/>
<path d="M320.59 53.3604C320.59 53.1404 320.48 53.0004 320.37 53.3604C318.1 60.7004 314.39 65.3104 309.17 65.3104C303.16 65.3104 298.91 59.1903 299.81 48.0303C300.96 33.8103 309.57 23.1204 324.47 23.1204C328.65 23.1204 333.76 23.9503 337 24.5203C337.47 24.5903 337.68 24.8404 337.65 25.3104C337.04 33.1204 336.97 33.9104 336.64 37.3004C335.2 52.3504 334.3 59.0504 336.1 59.0504C337.11 59.0504 337.4 56.7803 338.73 44.8604C338.77 44.6404 338.91 44.5004 339.09 44.5004C339.31 44.5004 339.49 44.6804 339.45 44.8604C337.9 59.6904 337.22 65.5303 328.79 65.5303C322.96 65.5303 320.58 62.7604 320.58 53.3604H320.59ZM316.67 58.6904C317.86 58.6904 320.41 54.7703 321.93 40.5403L323.08 30.1003C323.33 27.6503 323.48 26.1404 323.62 24.8104C323.66 24.3104 323.48 24.0503 322.94 24.0903C319.84 24.2303 317.36 33.2004 316.28 42.1304C316.17 42.9604 314.26 58.6904 316.68 58.6904H316.67Z" fill="#64755E"/>
<path d="M342.33 53.5703L345.28 25.6303C345.32 25.2703 344.92 24.9103 344.56 24.9103H342.33C342.11 24.9103 341.97 24.6903 342.01 24.5503C342.01 24.4103 342.19 24.1903 342.41 24.1903C349.75 24.1903 359.62 18.6503 360.34 11.8003C360.38 11.3703 361.1 11.3703 361.06 11.8003L359.84 23.4703C359.8 23.9003 360.06 24.1903 360.49 24.1903H365.32C365.54 24.1903 365.64 24.3303 365.64 24.5503C365.6 24.6903 365.46 24.9103 365.24 24.9103H360.42C359.99 24.9103 359.66 25.2003 359.63 25.6303L358.37 37.3003C357.11 49.5403 355.81 59.8403 358.41 59.8403C360.28 59.8403 360.75 55.8103 361.9 44.9303C361.94 44.7103 362.08 44.5703 362.3 44.5703C362.44 44.5703 362.66 44.7103 362.62 44.9303C361 60.2703 360.39 65.6003 350.16 65.6003C345.05 65.6003 341.52 61.5003 342.35 53.5803L342.33 53.5703Z" fill="#64755E"/>
<path d="M385.5 42.4803C387.26 33.8003 386.15 31.5303 384.31 31.5303C382.26 31.5303 381.14 35.6704 380.31 42.5504C379.59 48.5604 378.29 63.8304 379.23 64.3704V64.5104H360.29V64.3704C363.53 64.3704 364.43 55.7303 365.83 42.4803C366.69 34.2003 369.57 14.2504 365.33 14.2504L365.37 14.1104H381.5C382.98 14.1104 383.66 14.9403 383.52 16.4103C383.27 18.6803 381.61 30.4504 381.36 32.7604C381.32 33.0504 381.76 33.0504 381.86 32.8304C385.42 25.8504 389.53 23.2504 393.96 23.2504C402.71 23.2504 402.53 30.8504 399.72 44.2404C397.56 54.5004 398.32 59.0403 399.61 59.0403C400.69 59.0403 401.12 57.1703 402.53 44.8503C402.57 44.6303 402.71 44.4904 402.89 44.4904C403.11 44.4904 403.29 44.6703 403.25 44.8503C401.67 59.6103 401.02 65.5203 392.63 65.5203C382.05 65.5203 383.02 54.7203 385.5 42.4803Z" fill="#64755E"/>
<path d="M406.95 42.5203C408.03 31.7203 408.93 24.3403 405.22 24.3403L405.26 24.2003H421.43C422.94 24.2003 423.59 25.0603 423.34 26.5403C422.84 29.4603 422.26 34.5703 421.43 42.4203C420.17 54.1203 419.7 59.0503 421 59.0503C422.08 59.0503 422.51 57.1803 423.92 44.8603C423.96 44.6403 424.1 44.5003 424.28 44.5003C424.5 44.5003 424.68 44.6803 424.64 44.8603C423.06 59.6203 422.41 65.5303 414.02 65.5303C403.44 65.5303 405.74 54.8703 406.96 42.5203H406.95ZM417.21 9.79028C422.32 9.79028 425.09 12.0903 424.7 15.9103C424.3 19.8003 421.03 22.1003 415.91 22.1003C410.79 22.1003 407.95 19.8003 408.35 15.9103C408.75 12.0903 412.02 9.79028 417.21 9.79028Z" fill="#64755E"/>
<path d="M426.54 44.2802C427.62 34.2001 434.89 23.1802 448.68 23.1802C457.86 23.1802 461.93 26.4202 461.53 31.8202C461.21 36.2102 458 41.6802 443.31 43.6302C442.88 43.7002 442.55 43.9902 442.52 44.4202C441.51 56.5202 442.2 63.8602 447.67 63.8602C452.85 63.8602 457.82 57.8102 458.65 48.3102C458.69 48.0902 458.9 47.9502 459.05 47.9502C459.2 47.9502 459.41 48.0902 459.37 48.3102C457.86 61.3402 451.66 65.5901 443.1 65.5901C431.58 65.5901 425.21 56.8801 426.54 44.2802ZM443.39 42.6302C446.74 40.0702 448.36 34.5702 448.65 30.2802C448.97 25.4602 447.97 23.9102 446.85 23.9102C445.34 23.9102 443.68 25.8902 442.67 42.1302C442.63 42.7102 442.99 42.9602 443.39 42.6302Z" fill="#64755E"/>
<path d="M463.29 53.5704C465.34 34.0604 466.67 24.3404 463.33 24.3404L463.37 24.2004H480.87L480.83 24.3404C480.11 26.1404 479.89 33.3804 478.53 46.2304C477.7 54.0804 477.88 57.1704 479.39 57.1704C481.19 57.1704 482.31 52.9204 483.17 46.1504C485.33 29.2304 486.05 24.3304 482.77 24.3304L482.81 24.1904H499.95L499.91 24.3304C499.26 26.1304 499.15 31.5704 497.89 43.5604C496.74 54.5004 496.2 59.0404 497.96 59.0404C498.97 59.0404 499.26 56.7704 500.59 44.8504C500.63 44.6304 500.77 44.4904 500.95 44.4904C501.17 44.4904 501.35 44.6704 501.31 44.8504C499.76 59.6804 499.08 65.5204 490.65 65.5204C484.82 65.5204 482.69 62.7504 482.69 53.3504C482.69 53.1304 482.58 52.9904 482.47 53.3504C481.39 57.3804 477.54 65.5904 469.8 65.5904C463.61 65.5904 462.56 60.3304 463.28 53.5704H463.29Z" fill="#64755E"/>
<path d="M424.91 15.9505C424.91 19.2705 421.24 21.8704 416.72 22.1204C412.2 22.3704 407.54 20.6804 408.22 15.9704C408.46 14.3004 409.28 12.2104 411.04 11.1104C412.8 10.0104 415.91 9.67043 418.17 9.79043C423.62 10.0804 424.91 12.5605 424.91 15.9505Z" fill="#64755E"/>
<path d="M526.252 48.7086C526.252 50.8546 524.565 52.5943 522.484 52.5943C520.404 52.5943 518.717 50.8546 518.717 48.7086C518.717 46.5626 520.404 44.8229 522.484 44.8229C524.565 44.8229 526.252 46.5626 526.252 48.7086Z" fill="#E7D6A9"/>
<path d="M525.583 60.56C525.196 63.0131 522.381 66 522.381 66C522.381 66 519.629 63.1301 519.178 60.7543C518.671 58.0808 520.603 54.1486 520.603 54.1486C521.206 54.1486 521.686 54.6921 521.728 55.3124C521.842 57.0221 522.381 59.0752 522.381 59.2C522.381 59.3271 522.885 57.1669 522.965 55.3129C522.992 54.6894 523.471 54.1486 524.076 54.1486C524.076 54.1486 525.985 58.0171 525.583 60.56Z" fill="#D9D9D9"/>
<path d="M514.174 57.694C511.943 58.6347 508.003 57.7185 508.003 57.7185C508.003 57.7185 508.939 53.7992 510.668 52.1622C512.614 50.3203 516.875 49.9658 516.875 49.9658C517.189 50.4961 516.99 51.2015 516.499 51.5622C515.145 52.5561 513.729 54.1019 513.626 54.1671C513.521 54.2335 515.57 53.5485 517.145 52.6511C517.675 52.3493 518.372 52.4877 518.688 53.02C518.688 53.02 516.486 56.7188 514.174 57.694Z" fill="#D9D9D9"/>
<path d="M530.829 57.7649C533.06 58.7056 537 57.7895 537 57.7895C537 57.7895 536.064 53.8701 534.335 52.2332C532.389 50.3912 528.128 50.0367 528.128 50.0367C527.813 50.567 528.013 51.2725 528.504 51.6331C529.857 52.627 531.274 54.1729 531.377 54.238C531.482 54.3044 529.433 53.6195 527.858 52.7221C527.328 52.4202 526.631 52.5587 526.315 53.0909C526.315 53.0909 528.517 56.7898 530.829 57.7649Z" fill="#D9D9D9"/>
<path d="M530.829 39.9414C533.06 39.0007 537 39.9168 537 39.9168C537 39.9168 536.064 43.8362 534.335 45.4731C532.389 47.3151 528.128 47.6696 528.128 47.6696C527.813 47.1393 528.013 46.4338 528.504 46.0732C529.857 45.0793 531.274 43.5334 531.377 43.4683C531.482 43.4019 529.433 44.0868 527.858 44.9842C527.328 45.2861 526.631 45.1476 526.315 44.6154C526.315 44.6154 528.517 40.9165 530.829 39.9414Z" fill="#D9D9D9"/>
<path d="M514.171 39.9414C511.94 39.0007 508 39.9168 508 39.9168C508 39.9168 508.936 43.8362 510.665 45.4731C512.611 47.3151 516.872 47.6696 516.872 47.6696C517.187 47.1393 516.987 46.4338 516.496 46.0732C515.143 45.0793 513.726 43.5334 513.623 43.4683C513.518 43.4019 515.567 44.0868 517.142 44.9842C517.672 45.2861 518.369 45.1476 518.685 44.6154C518.685 44.6154 516.483 40.9165 514.171 39.9414Z" fill="#D9D9D9"/>
<path d="M525.583 37.44C525.196 34.9869 522.381 32 522.381 32C522.381 32 519.629 34.8699 519.178 37.2457C518.671 39.9192 520.603 43.8514 520.603 43.8514C521.206 43.8514 521.686 43.3079 521.728 42.6876C521.842 40.978 522.381 38.9248 522.381 38.8C522.381 38.6729 522.885 40.8331 522.965 42.6871C522.992 43.3106 523.471 43.8514 524.076 43.8514C524.076 43.8514 525.985 39.9829 525.583 37.44Z" fill="#D9D9D9"/>
</svg>
